<svg xmlns="http://www.w3.org/2000/svg" viewBox="0 0 689.01 566.3"><defs><style>.a{fill:#ededed;stroke:#991636;stroke-linecap:round;stroke-linejoin:round;stroke-width:11.34px;}.b{fill:#389a6b;}.c{fill:#58af7a;}.d{fill:#999;}.e{fill:#575756;}.f{font-size:36px;fill:#991636;font-family:LibreSemiSerifSSiBold, Libre Semi Serif SSi;}.g{font-size:72px;stroke:#c38e4b;stroke-linejoin:bevel;stroke-width:1.5px;font-family:DutchMediaevalPro-Bold, Dutch Mediaeval Pro;font-weight:700;}.h{letter-spacing:-0.04em;}.i{letter-spacing:-0.01em;}.j{letter-spacing:0em;}</style></defs><rect class="a" x="5.67" y="5.67" width="677.67" height="421.66" rx="94.12"/><path class="b" d="M265,343.64a111.9,111.9,0,0,1-64.83-1.93l-14-4.69,17.6-8.76a101.25,101.25,0,0,1-52.16-40l-2.7-4.06,24.19-6.54L165.5,273a71.57,71.57,0,0,1-34-56.94l15.37,8.82-5.13-10.31a67.11,67.11,0,0,1-3.55-51.24l13.16,15.41-.11-2a119.13,119.13,0,0,1,15.62-66.11l5.5.69a69,69,0,0,1,47.19,28l2.24-17.58a73.74,73.74,0,0,1,32.9,33l2.19,4.4,3.92-6.85A18.36,18.36,0,0,0,261.3,135l8.08,5.42A83.88,83.88,0,0,1,303,185.6a23.71,23.71,0,0,0,11.92-13.7l1.3-3.86,8.8,23.2a88.14,88.14,0,0,1,4.25,47.15l13.2-6.56,0,29.11a71.12,71.12,0,0,1-6,28.45l-.22.44A73.77,73.77,0,0,1,307.34,323l-12.85,7.93A112,112,0,0,1,265,343.64Z" transform="translate(-76.44 -19.14)"/><path class="c" d="M280.73,317.42l-12.66,6.3A169.61,169.61,0,0,1,229,337.5l-2.11-9.6a159.65,159.65,0,0,0,36.8-13l12-6,2.68-2.44a151,151,0,0,0,35.33-48.2l8.92,4.14a160.93,160.93,0,0,1-37.62,51.32l-3.19,2.91A5.09,5.09,0,0,1,280.73,317.42Z" transform="translate(-76.44 -19.14)"/><path class="c" d="M291.27,334.6l-27.38-23.78a251.35,251.35,0,0,1-75.76-116.51L173.07,145l9.4-2.87,15.06,49.27a241.64,241.64,0,0,0,72.81,112l27.38,23.78Z" transform="translate(-76.44 -19.14)"/><path class="c" d="M245.62,291l-.75.37a108.29,108.29,0,0,1-56.8,11l.79-9.79a98.54,98.54,0,0,0,51.64-10l.44-.22,14.74-10.17a96.65,96.65,0,0,0,36.78-48.84l3.6-10.72,9.31,3.12-3.59,10.73a106.43,106.43,0,0,1-40.51,53.8l-15,10.37A3.76,3.76,0,0,1,245.62,291Z" transform="translate(-76.44 -19.14)"/><path class="c" d="M240.61,238.58l-21.28,10.59a4.84,4.84,0,0,1-1.14.4l-18.09,4a52.64,52.64,0,0,1-43-9.36l5.92-7.85A42.81,42.81,0,0,0,198,244l17.51-3.85,20.74-10.32a60.56,60.56,0,0,0,32.59-43.28l.73-4,9.67,1.78-.74,4A70.35,70.35,0,0,1,240.61,238.58Z" transform="translate(-76.44 -19.14)"/><path class="c" d="M197.43,205.18a4.89,4.89,0,0,1-1.79.5l-8.72.7a61.7,61.7,0,0,1-35.87-8l4.89-8.53a52,52,0,0,0,30.19,6.75l7.13-.58,16.12-13.8a96.78,96.78,0,0,0,21.23-25.58l8.53,4.89a107.19,107.19,0,0,1-23.37,28.17l-17.34,14.8A4.94,4.94,0,0,1,197.43,205.18Z" transform="translate(-76.44 -19.14)"/><path class="b" d="M547.42,330.91,534.57,323a73.77,73.77,0,0,1-28.83-33.15l-.22-.44a71.12,71.12,0,0,1-6-28.45l0-29.11,13.2,6.56a88.14,88.14,0,0,1,4.25-47.15l8.8-23.2,1.3,3.86A23.71,23.71,0,0,0,539,185.6a83.88,83.88,0,0,1,33.58-45.21l8.08-5.42a18.34,18.34,0,0,0,.52,17.32l3.92,6.85,2.19-4.4a73.74,73.74,0,0,1,32.9-33l2.24,17.58a69,69,0,0,1,47.19-28l5.5-.69a119.13,119.13,0,0,1,15.62,66.11l-.11,2,13.16-15.41a67.11,67.11,0,0,1-3.55,51.24l-5.13,10.31L710.43,216a71.57,71.57,0,0,1-34,56.94l-7.62,4.68L693,284.2l-2.7,4.06a101.25,101.25,0,0,1-52.16,40l17.6,8.76-14,4.69a112,112,0,0,1-94.3-10.8Z" transform="translate(-76.44 -19.14)"/><path class="c" d="M560.05,316.66l-3.19-2.91a160.93,160.93,0,0,1-37.62-51.32l8.92-4.14a151,151,0,0,0,35.33,48.2l2.68,2.44,12,6a159.65,159.65,0,0,0,36.8,13l-2.11,9.6a169.61,169.61,0,0,1-39.06-13.78l-12.66-6.3A5.09,5.09,0,0,1,560.05,316.66Z" transform="translate(-76.44 -19.14)"/><path class="c" d="M544.19,327.19l27.38-23.78a241.64,241.64,0,0,0,72.81-112l15.06-49.27,9.4,2.87-15.06,49.27A251.35,251.35,0,0,1,578,310.82L550.64,334.6Z" transform="translate(-76.44 -19.14)"/><path class="c" d="M595.68,290.62l-15-10.37a106.43,106.43,0,0,1-40.51-53.8l-3.6-10.73,9.32-3.12,3.6,10.72a96.65,96.65,0,0,0,36.78,48.84L601,282.33l.44.22a98.54,98.54,0,0,0,51.64,10l.79,9.79a108.35,108.35,0,0,1-56.81-11l-.74-.37A3.76,3.76,0,0,1,595.68,290.62Z" transform="translate(-76.44 -19.14)"/><path class="c" d="M563.43,188.28l-.74-4,9.67-1.78.73,4a60.56,60.56,0,0,0,32.59,43.28l20.74,10.32L643.93,244a42.81,42.81,0,0,0,35-7.61l5.92,7.85a52.64,52.64,0,0,1-43,9.36l-18.09-4a4.84,4.84,0,0,1-1.14-.4L601.3,238.58A70.35,70.35,0,0,1,563.43,188.28Z" transform="translate(-76.44 -19.14)"/><path class="c" d="M643.47,204.49l-17.33-14.8a107.19,107.19,0,0,1-23.37-28.17l8.53-4.89a96.78,96.78,0,0,0,21.23,25.58L648.65,196l7.13.58A52,52,0,0,0,686,189.84l4.89,8.53a61.7,61.7,0,0,1-35.87,8l-8.72-.7a4.89,4.89,0,0,1-1.79-.5A5.31,5.31,0,0,1,643.47,204.49Z" transform="translate(-76.44 -19.14)"/><rect class="d" x="258.5" y="36.04" width="53.76" height="44.94" rx="5.63"/><path class="d" d="M507.34,89.16c0-3.79-.09-7.34.08-10.87,0-.72,1-1.58,1.69-2,7.42-4.74,10.52-11.9,8.45-19.72S509.26,44,500.71,44q-31.47,0-62.94,0c-8.46,0-14.68,4.8-16.71,12.73-2,7.69,1.2,15,8.33,19.47a4.24,4.24,0,0,1,1.86,2.69c.22,3.35.08,6.73.08,10.29Z" transform="translate(-76.44 -19.14)"/><rect class="e" x="215.48" y="69.57" width="258.04" height="338.61" rx="26.9"/><text class="f" transform="translate(85.8 557.33)">CURIOUSLY PORTABLE CHARGER</text><text class="g" transform="translate(44.88 513.04)">MINT<tspan class="h" x="196.99" y="0">Y</tspan><tspan x="242.92" y="0">CHA</tspan><tspan class="i" x="401.25" y="0">R</tspan><tspan class="j" x="447.55" y="0">GER</tspan></text></svg>